<svg xmlns="http://www.w3.org/2000/svg" viewBox="0 0 585.06 693.49"><defs><style>.cls-1{fill:#00a99d;}</style></defs><title>dt_logo_2</title><g id="Capa_2" data-name="Capa 2"><g id="Capa_1-2" data-name="Capa 1"><path class="cls-1" d="M450.74,0c4,.42,8,.74,12,1.27Q513.5,8,543.94,49.17c11.34,15.38,19.21,32.49,25.1,50.59,6.34,19.5,10.19,39.51,12.58,59.84a545.19,545.19,0,0,1,2.64,91.5c-1,20.63-2.91,41.2-5.93,61.63-2.55,17.2-5.26,34.38-8.41,51.48-5.15,27.89-11.44,55.55-19.34,82.79-6.53,22.51-13.29,45-20.83,67.16-12.11,35.64-26.47,70.37-44.65,103.41C475.05,635.83,464,653.4,449.66,668.7c-7.44,8-15.65,15-25.54,19.79-19.65,9.6-39.57,5.11-53.29-12.11-7.07-8.87-11.7-19-15.47-29.6-5.91-16.57-9.75-33.68-12.79-51-2.85-16.12-5.3-32.32-8-48.48-3.58-21.71-7-43.45-10.86-65.12a231.31,231.31,0,0,0-10.15-38.68c-2.7-7.41-5.76-14.66-10.78-20.87a25.19,25.19,0,0,0-3-3.11c-4.63-4.05-10.05-4-14.66.07-4.92,4.38-7.91,10.08-10.51,16-6.22,14.08-9.91,28.93-12.82,44-2.86,14.8-5.41,29.66-7.83,44.54-3.2,19.59-6,39.24-9.23,58.82-3.05,18.29-6.59,36.49-12,54.27-4,13.1-8.79,25.84-17,37-5.38,7.37-12,13.31-20.61,16.64-10.07,3.88-20.12,3.27-30-.56-11.79-4.56-21.18-12.52-29.7-21.6-12.22-13-22-27.83-30.95-43.23C90.53,601.32,79,576,68.7,550.06a965,965,0,0,1-31.87-94.49c-7.51-26.45-14.3-53.1-19.38-80.12-4-21.55-7.74-43.18-10.92-64.88a611.12,611.12,0,0,1-6.46-98,487.11,487.11,0,0,1,4.29-60.46C7.73,128.14,13,104.67,22.52,82.32,31.64,60.9,44,41.79,62.15,26.81,78.7,13.14,97.73,5,118.88,1.8c4.42-.67,8.89-.95,13.34-1.43.71-.07,1.41-.24,2.11-.37h14.74a24.76,24.76,0,0,0,2.54.39A195.07,195.07,0,0,1,189,6.14c25.43,6.25,49.39,16.29,72.78,27.93,20.13,10,40.72,10.13,60.93.28C341,25.45,359.4,17.11,378.79,11A236.59,236.59,0,0,1,423.1,1.25C427.39.76,431.7.41,436,0ZM28.28,227c1.19,17.84,2,34.87,3.52,51.84a665.74,665.74,0,0,0,10.29,72.21c4.33,21.56,8.88,43.1,14,64.5a922.23,922.23,0,0,0,29.44,97.55c10.29,28.55,21.82,56.56,36,83.44,8.89,16.9,18.6,33.29,31,47.91,6,7.07,12.45,13.68,20.88,18,7.42,3.77,12.49,2.81,17.84-3.53,4.1-4.86,6.81-10.52,9.18-16.36,5.65-13.91,9.28-28.41,11.94-43.11,3.92-21.66,7.3-43.41,10.91-65.12,3-18.22,5.83-36.48,9.16-54.65C235.69,461.71,240,444,247,427c4.14-10,9.27-19.42,17.08-27.12,15.93-15.68,38.81-16.26,55.46-1.38,6.79,6.07,11.55,13.61,15.5,21.72,6.43,13.19,10.42,27.2,13.79,41.41,5.27,22.21,8.63,44.77,12.18,67.29,3,19.25,5.94,38.52,9.2,57.73,3,17.66,6.71,35.16,12.95,52,2.63,7.13,5.66,14.09,10.54,20,5.3,6.44,10.56,7.49,18,3.74,7-3.51,12.58-8.68,17.74-14.37C444.11,631.87,455,613.16,465,593.9c12.83-24.7,23.44-50.37,33-76.49a1008.82,1008.82,0,0,0,31.74-104.56q9.6-38.79,16.16-78.22c3.66-22.09,6.54-44.27,8.33-66.59a558.43,558.43,0,0,0,1.06-77.72c-1.34-22.82-4-45.44-9.67-67.63-4.68-18.36-11.23-36-21.76-51.87C506.4,44.42,481.72,30.68,450.21,29a151.54,151.54,0,0,0-37,2.9C388,36.8,364.35,45.84,341.56,57.29c-11,5.51-22.18,10.06-34.42,11.86a95.08,95.08,0,0,1-57.69-9C227.64,49.21,205.31,39.71,181.51,34c-18.08-4.34-36.34-6.52-55-4.2-24.4,3-44.37,13.92-59.7,33.19C54.31,78.75,46.69,96.91,41.16,116.05a288.2,288.2,0,0,0-10.31,59C29.55,192.59,29.08,210.21,28.28,227Z"/></g></g></svg>