<svg xmlns="http://www.w3.org/2000/svg" viewBox="0 0 966.82 866"><defs><style>.cls-1{fill:#fff;}.cls-2{fill:none;stroke:#a80020;stroke-miterlimit:10;stroke-width:27px;}.cls-3{fill:#a8002c;}</style></defs><title>Recurso 2</title><g id="Capa_2" data-name="Capa 2"><g id="Capa_1-2" data-name="Capa 1"><path class="cls-1" d="M544.52,0h18.4c1,.16,1.93.38,2.91.48,5.46.6,11,1,16.39,1.77a144.28,144.28,0,0,1,50.61,17.29c26.43,15,45.65,36.9,60.09,63.31,12.73,23.28,20.77,48.26,26.46,74.07A470.67,470.67,0,0,1,729,226.23a727.48,727.48,0,0,1-.35,104.08c-2.11,28.16-5.09,56.22-9.88,84q-6.39,37-13.89,73.83c-6.51,31.88-14.86,63.32-24.07,94.52a1162.49,1162.49,0,0,1-39.77,114c-13.4,32.54-28.29,64.35-46.75,94.38C583.26,809,571.18,826,556,840.65,545.14,851.17,533.14,860,518.26,864c-3.11.84-6.31,1.34-9.46,2h-9.21a5.21,5.21,0,0,0-1.22-.47c-11.18-1.28-20.6-6.23-28.69-13.86-11.44-10.79-18.31-24.43-23.92-38.79a290.55,290.55,0,0,1-14.83-53.3c-4.89-26.48-9.32-53.05-13.56-79.64-4.85-30.42-9-61-15.82-91-3.46-15.3-7.44-30.46-13.84-44.85-3.31-7.44-7-14.66-13.28-20.16-5.68-5-12.67-5.24-18,0a58.11,58.11,0,0,0-9.48,12.36c-7.56,13.26-11.7,27.86-15.42,42.55-6.61,26.14-10.77,52.76-14.95,79.37-3.8,24.21-7.4,48.45-11.41,72.62-4,23.82-8.72,47.49-16.2,70.51-4.67,14.37-10.36,28.27-19.37,40.56-7.31,10-16.28,17.84-28.28,21.65-3.32,1.05-6.78,1.65-10.18,2.45h-9.2c-1.3-.26-2.6-.57-3.92-.79-13.2-2.19-24.39-8.59-34.58-16.89-15.77-12.83-28.1-28.68-39.29-45.47-20-30-35.75-62.36-49.87-95.48-18.33-43-33.41-87.13-46.37-132-10.11-35-19.18-70.24-25.94-106-5.26-27.88-10.13-55.86-14.11-83.94-3-21-4.77-42.28-6.22-63.5A661.08,661.08,0,0,1,4.29,200.1c3-25.75,7.83-51.11,15.87-75.79,7.33-22.51,17.15-43.79,31.27-62.92Q89.39,10,152.78,1.59c5-.66,10-1.07,15-1.59h18.4a28.75,28.75,0,0,0,3.18.49,243.83,243.83,0,0,1,46.69,7.18C267.83,15.47,297.75,28,327,42.54c25.14,12.51,50.85,12.65,76.08.35,22.79-11.11,45.82-21.52,70-29.16A295.17,295.17,0,0,1,528.4,1.57C533.76,1,539.15.52,544.52,0ZM35.38,283.5c1.48,22.29,2.52,43.55,4.39,64.74a827.78,827.78,0,0,0,12.86,90.17C58,465.34,63.71,492.24,70.11,519a1148,1148,0,0,0,36.76,121.82c12.85,35.65,27.25,70.63,44.9,104.2,11.09,21.1,23.22,41.57,38.72,59.82,7.5,8.83,15.54,17.08,26.06,22.43,9.27,4.72,15.61,3.51,22.28-4.4,5.12-6.07,8.5-13.15,11.47-20.43a227.41,227.41,0,0,0,12.77-43.8c4.83-25.58,9.21-51.25,13.53-76.93,4.16-24.7,7.76-49.5,12-74.18,4.08-23.54,9.29-46.85,17.81-69.27,5.06-13.3,11.27-26,21.1-36.54,12.52-13.44,27.8-19.76,46.23-16.72,14,2.31,24.61,10.24,33.18,21.17,10.06,12.83,16.13,27.65,21.1,43,7.86,24.24,12.67,49.2,16.81,74.27,4.05,24.45,7.5,49,11.49,73.46q4.51,27.75,9.77,55.37c3.29,17.19,7.69,34.11,14.34,50.36,3.39,8.29,7.28,16.32,13.76,22.75,4.46,4.42,9.7,5.77,15.63,3.57a45.21,45.21,0,0,0,7.81-3.66c9.77-5.93,17.5-14.15,24.66-22.9,16.13-19.73,28.72-41.69,40.25-64.3,15.13-29.68,27.81-60.41,39.26-91.66a1257.12,1257.12,0,0,0,39.67-130.57q12.06-48.69,20.29-98.19c4.54-27.5,8.13-55.12,10.36-82.89a700.1,700.1,0,0,0,1.32-97c-1.67-28.51-5-56.75-12.08-84.46-5.85-22.92-14-44.9-27.18-64.76-21.81-33-52.63-50.13-92-52.21A189.58,189.58,0,0,0,516,39.86c-31.37,6.1-61,17.38-89.4,31.68-13.71,6.89-27.71,12.57-43,14.81-25.2,3.71-49.3.12-72.05-11.26-27.23-13.64-55.12-25.51-84.83-32.63-22.58-5.41-45.38-8.14-68.65-5.24C127.61,41,102.67,54.61,83.53,78.67,67.87,98.34,58.36,121,51.46,144.92a360.46,360.46,0,0,0-12.88,73.65C37,240.5,36.37,262.5,35.38,283.5Z"/></g><g id="Capa_7" data-name="Capa 7"><circle class="cls-2" cx="740.82" cy="615" r="212.5"/></g><g id="Capa_8" data-name="Capa 8"><rect class="cls-3" x="722.82" y="486" width="34" height="173"/><rect class="cls-3" x="720.82" y="689" width="36" height="44"/></g></g></svg>