<svg xmlns="http://www.w3.org/2000/svg" viewBox="0 0 900 600"><defs><style>.cls-1,.cls-11,.cls-13{fill:none;}.cls-10,.cls-2,.cls-7,.cls-8,.cls-9{fill:#1aacaa;}.cls-3,.cls-6{fill:#fff;}.cls-4{fill:#f8ae9d;}.cls-5{fill:#e1e4e5;}.cls-10,.cls-6{fill-rule:evenodd;}.cls-7,.cls-8,.cls-9{stroke:#1aacaa;}.cls-7{stroke-width:1.42px;}.cls-8{stroke-width:2.41px;}.cls-9{stroke-miterlimit:10;}.cls-11,.cls-13{stroke:#fff;stroke-linecap:round;stroke-linejoin:round;}.cls-11{stroke-width:6px;}.cls-12{fill:#fcfcfc;}.cls-13{stroke-width:2px;}</style></defs><title>bg_dentistapp</title><g id="Capa_1" data-name="Capa 1"><path class="cls-1" d="M0,0H900V600H0Z"/><circle class="cls-2" cx="441.58" cy="298.36" r="255.92"/><path class="cls-3" d="M477.89,111c-.44,0-.89-.06-1.34-.07h-.9l-.48,0c-.15,0-.3,0-.45,0l-.51,0-1,.12c-.34,0-.67.11-1,.18l-.32.06-1,.23L326.77,150.27a19.5,19.5,0,0,0-3.81,1.44A20.21,20.21,0,0,0,312.55,175L377,415.5l14.71,54.88a20.18,20.18,0,0,0,17.74,14.89h.11c.4,0,.81.06,1.22.06h.91l.48,0a3.4,3.4,0,0,0,.45,0l.5,0,.43,0,.54-.08.4-.06.62-.12.32-.06c.31-.07.63-.14.94-.23L560.56,446a20.61,20.61,0,0,0,2-.64,20.15,20.15,0,0,0,12.69-22c-.11-.69-.26-1.36-.43-2L510.34,180.79l-14.71-54.88A20.17,20.17,0,0,0,477.89,111Z"/><path class="cls-2" d="M389.69,151.35l28-7.5a5.33,5.33,0,0,1,6.53,3.77h0a5.33,5.33,0,0,1-3.77,6.54l-28,7.5a5.33,5.33,0,0,1-6.53-3.78h0A5.32,5.32,0,0,1,389.69,151.35Z"/><path class="cls-4" d="M654.71,566.75s-26.26-35.33-47.42-44.24c-20.93-8.82-79.16-20.66-116.84-50.07a1.92,1.92,0,0,1-.54-2.39c1.5-2.89,6.44-8.59,21.6-3.85,19.72,6.21,34.94,10.57,34.94,10.57s-45.05-77-55.71-98.77a42.52,42.52,0,0,1-3.89-11.2c-1.79-10,11.8-15,17.07-6.24l30.82,51s-.29-6.78,5.14-9.48c5.13-2.55,15.12,2.29,19.49,10.56,0,0,.32-7.64,8.1-9s15.41,6.62,18.32,11.23c0,0-1.28-7.35,4.05-9.93s15.83,4.14,18.31,7.16,27.54,24.48,48.34,71.36l55.93,35.24s2.49,24.86-57.71,48Z"/><path class="cls-5" d="M697.51,438.91h0a22,22,0,0,1,22-22h33.56a22,22,0,0,1,22,22h0a22,22,0,0,1-22,22H719.53A22,22,0,0,1,697.51,438.91Z"/><path class="cls-3" d="M702.47,438.69h0a17.7,17.7,0,0,1,17.7-17.7h0a17.69,17.69,0,0,1,17.7,17.7h0a17.69,17.69,0,0,1-17.7,17.7h0A17.7,17.7,0,0,1,702.47,438.69Z"/><path class="cls-5" d="M190.91,532.26h0a22,22,0,0,1,22-22H246.5a22,22,0,0,1,22,22h0a22,22,0,0,1-22,22H212.93A22,22,0,0,1,190.91,532.26Z"/><path class="cls-3" d="M195.88,532h0a17.69,17.69,0,0,1,17.7-17.7h0a17.7,17.7,0,0,1,17.7,17.7h0a17.71,17.71,0,0,1-17.7,17.7h0A17.7,17.7,0,0,1,195.88,532Z"/><path class="cls-2" d="M752.05,106.42h0a22,22,0,0,1-22,22H696.46a22,22,0,0,1-22-22h0a22,22,0,0,1,22-22H730A22,22,0,0,1,752.05,106.42Z"/><path class="cls-3" d="M747.08,106.64h0a17.7,17.7,0,0,1-17.7,17.7h0a17.7,17.7,0,0,1-17.7-17.7h0a17.69,17.69,0,0,1,17.7-17.7h0A17.69,17.69,0,0,1,747.08,106.64Z"/><path class="cls-6" d="M315.47,316.34a6.06,6.06,0,0,1,1.17,8.39L299,348.7a5.79,5.79,0,0,1-7.95,1.4l-12.74-8.67-8.49,13a5.8,5.8,0,0,1-8.14,1.66,6.07,6.07,0,0,1-1.63-8.31l11.75-18a5.79,5.79,0,0,1,8.14-1.66L293,337l14.29-19.44a5.79,5.79,0,0,1,8.22-1.2Zm296.83-85a6.08,6.08,0,0,1,1.17,8.39l-17.62,24a5.81,5.81,0,0,1-8,1.39l-12.73-8.66-8.49,13a5.8,5.8,0,0,1-8.14,1.66,6.06,6.06,0,0,1-1.63-8.31l11.74-18a5.81,5.81,0,0,1,8.15-1.66l13,8.84,14.28-19.44a5.81,5.81,0,0,1,8.23-1.2Z"/><path class="cls-6" d="M145.35,334.78a4.92,4.92,0,1,0,0,9.84h0a4.92,4.92,0,1,0,0-9.84"/><circle class="cls-7" cx="153.23" cy="449.48" r="31.89"/><path class="cls-3" d="M163.18,447.49a2.83,2.83,0,0,1,0,4.91l-12.64,7.29a2.83,2.83,0,0,1-4.24-2.45V442.65a2.83,2.83,0,0,1,4.24-2.45Z"/><circle class="cls-8" cx="585.2" cy="88.51" r="54.3"/><path class="cls-3" d="M602.14,85.13a4.82,4.82,0,0,1,0,8.35L580.62,105.9a4.82,4.82,0,0,1-7.23-4.18V76.88a4.82,4.82,0,0,1,7.23-4.18l21.52,12.43Z"/><circle class="cls-2" cx="669.19" cy="61.32" r="14.68"/><circle class="cls-2" cx="177.8" cy="197.15" r="7.87"/><circle class="cls-2" cx="727.73" cy="246.78" r="7.16"/><circle class="cls-5" cx="589.23" cy="557.19" r="9.2"/><circle class="cls-5" cx="317.3" cy="560.05" r="6.82"/><circle class="cls-5" cx="253.62" cy="171.95" r="10.11"/><circle class="cls-3" cx="462.27" cy="521.47" r="11.24"/><circle class="cls-5" cx="172.86" cy="387.29" r="10.1"/><circle class="cls-5" cx="291.71" cy="59.83" r="13.43"/><ellipse class="cls-5" cx="751.89" cy="374.8" rx="10.33" ry="8.27"/><circle class="cls-5" cx="700.85" cy="161.16" r="7.01"/></g><g id="Capa_3" data-name="Capa 3"><path class="cls-9" d="M448.83,204.94l2.67-.72.44,0c.81-.13,1.62-.29,2.44-.38a21.35,21.35,0,0,1,8,.53,23.47,23.47,0,0,1,11.17,6.82,41.59,41.59,0,0,1,6.71,9.7,70.64,70.64,0,0,1,4.09,9.66,109.1,109.1,0,0,1,4,15.08c.79,4.16,1.45,8.34,1.84,12.55q.53,5.61.87,11.23c.3,4.87.31,9.75.19,14.63a170.2,170.2,0,0,1-1.32,18.05,98.32,98.32,0,0,1-3.09,15.49,37.3,37.3,0,0,1-3.6,8.66,13.21,13.21,0,0,1-4.56,4.86c-.42.24-.86.43-1.29.65l-1.34.36a.62.62,0,0,0-.19,0,7.4,7.4,0,0,1-4.7-.89,15.44,15.44,0,0,1-5-4.68,43.5,43.5,0,0,1-4.22-7.14c-1.74-3.65-3.42-7.32-5.07-11-1.88-4.21-3.67-8.47-5.83-12.56a36.86,36.86,0,0,0-3.75-6,8.43,8.43,0,0,0-2.71-2.4,1.88,1.88,0,0,0-2.61.71,8.86,8.86,0,0,0-.89,2.16,24.75,24.75,0,0,0-.57,6.76c.06,4,.49,8.06.92,12.07.4,3.66.82,7.31,1.18,11a72.73,72.73,0,0,1,.4,10.84,21.13,21.13,0,0,1-1.23,6.63,8.38,8.38,0,0,1-3.25,4.23c-.44.29-.91.51-1.37.76l-1.34.35-.6,0a11,11,0,0,1-5.66-1.1,30,30,0,0,1-7.46-5.05,87.93,87.93,0,0,1-10.94-11.88,171.32,171.32,0,0,1-11.85-17.31c-2.83-4.67-5.52-9.42-7.89-14.34-1.84-3.83-3.64-7.69-5.31-11.6-1.25-2.93-2.34-5.94-3.37-8.95A99.27,99.27,0,0,1,378.41,255a57.7,57.7,0,0,1-.65-11.59A32.57,32.57,0,0,1,379.83,233a21.74,21.74,0,0,1,12.35-12.61c.69-.29,1.41-.54,2.11-.81l2.67-.72c.16,0,.32,0,.48,0a36.13,36.13,0,0,1,7-.78A65.58,65.58,0,0,1,419,219.57a12.37,12.37,0,0,0,11-2.91,77.37,77.37,0,0,1,9-6.95,44.58,44.58,0,0,1,7.54-3.92C447.31,205.49,448.08,205.22,448.83,204.94Zm-62.67,60.87c1.08,3.17,2.06,6.21,3.15,9.2a124.16,124.16,0,0,0,5.38,12.56c1.83,3.69,3.7,7.36,5.67,11a172.09,172.09,0,0,0,10.06,16.2A122.5,122.5,0,0,0,421,328.09a48.19,48.19,0,0,0,7.94,7.16,13.12,13.12,0,0,0,4.64,2.23,2.37,2.37,0,0,0,3.06-1.51,11,11,0,0,0,.86-3.4,34,34,0,0,0,.15-6.84c-.3-3.89-.67-7.78-1-11.66s-.8-7.47-1.15-11.21a56.57,56.57,0,0,1-.11-10.73A16.27,16.27,0,0,1,437,286a7.39,7.39,0,0,1,6-4.22,7.9,7.9,0,0,1,5.63,1.77,20.7,20.7,0,0,1,4.73,5.4,76,76,0,0,1,5.32,10.1c1.54,3.38,3,6.8,4.53,10.19q1.73,3.84,3.57,7.64a38.61,38.61,0,0,0,4,6.73,9.93,9.93,0,0,0,2.87,2.76,2.12,2.12,0,0,0,2.41-.09,6.58,6.58,0,0,0,1-.84,14.64,14.64,0,0,0,2.68-4.27,53.22,53.22,0,0,0,3.33-10.88,125.24,125.24,0,0,0,2.11-14.8,186.14,186.14,0,0,0,.66-20.45q-.15-7.51-.89-15c-.41-4.16-1-8.29-1.72-12.4a106.69,106.69,0,0,0-3.59-14.1,66.43,66.43,0,0,0-5-11.76,31.3,31.3,0,0,0-6.46-8.32,16.75,16.75,0,0,0-15.35-4,28.33,28.33,0,0,0-6.56,2.33,52,52,0,0,0-11.71,8.07,21.18,21.18,0,0,1-5.64,3.82A17.9,17.9,0,0,1,418,224.88a60.07,60.07,0,0,0-13.56-1.42,28.65,28.65,0,0,0-10.14,1.92,16.31,16.31,0,0,0-9.18,8.9,28.16,28.16,0,0,0-2.06,10.84,54.37,54.37,0,0,0,1,11.17C384.71,259.52,385.48,262.73,386.16,265.81Z"/><path class="cls-9" d="M386.16,265.81c-.68-3.08-1.45-6.29-2.07-9.52a54.37,54.37,0,0,1-1-11.17,28.16,28.16,0,0,1,2.06-10.84,16.31,16.31,0,0,1,9.18-8.9,28.65,28.65,0,0,1,10.14-1.92A60.07,60.07,0,0,1,418,224.88a17.9,17.9,0,0,0,10.87-1.17,21.18,21.18,0,0,0,5.64-3.82,52,52,0,0,1,11.71-8.07,28.33,28.33,0,0,1,6.56-2.33,16.75,16.75,0,0,1,15.35,4,31.3,31.3,0,0,1,6.46,8.32,66.43,66.43,0,0,1,5,11.76,106.69,106.69,0,0,1,3.59,14.1c.75,4.11,1.31,8.24,1.72,12.4q.75,7.49.89,15a186.14,186.14,0,0,1-.66,20.45,125.24,125.24,0,0,1-2.11,14.8,53.22,53.22,0,0,1-3.33,10.88,14.64,14.64,0,0,1-2.68,4.27,6.58,6.58,0,0,1-1,.84,2.12,2.12,0,0,1-2.41.09,9.93,9.93,0,0,1-2.87-2.76,38.61,38.61,0,0,1-4-6.73q-1.84-3.79-3.57-7.64c-1.53-3.39-3-6.81-4.53-10.19a76,76,0,0,0-5.32-10.1,20.7,20.7,0,0,0-4.73-5.4A7.9,7.9,0,0,0,443,281.8a7.39,7.39,0,0,0-6,4.22,16.27,16.27,0,0,0-1.63,6.11,56.57,56.57,0,0,0,.11,10.73c.35,3.74.79,7.47,1.15,11.21s.74,7.77,1,11.66a34,34,0,0,1-.15,6.84,11,11,0,0,1-.86,3.4,2.37,2.37,0,0,1-3.06,1.51,13.12,13.12,0,0,1-4.64-2.23,48.19,48.19,0,0,1-7.94-7.16,122.5,122.5,0,0,1-10.56-13.34,172.09,172.09,0,0,1-10.06-16.2c-2-3.62-3.84-7.29-5.67-11A124.16,124.16,0,0,1,389.31,275C388.22,272,387.24,269,386.16,265.81Z"/></g><g id="Capa_4" data-name="Capa 4"><path class="cls-10" d="M511.87,262.46a26.58,26.58,0,1,1-37.59,0,26.58,26.58,0,0,1,37.59,0Z"/><path class="cls-11" d="M501,276.7l-16.77,5.72m11.21,5.45-5.66-16.62"/><path class="cls-11" d="M512.66,261a27.76,27.76,0,1,1-39.26,0,27.78,27.78,0,0,1,39.26,0"/></g><g id="Capa_5" data-name="Capa 5"><path class="cls-2" d="M148.25,113.55l48-12.26c13.32-3.41,26.24,2.11,28.84,12.31l9.4,36.76c2.61,10.21-6.08,21.24-19.4,24.65l-48,12.26c-13.32,3.41-26.24-2.11-28.84-12.32l-9.4-36.75C126.24,128,134.93,117,148.25,113.55Z"/><circle class="cls-5" cx="233.27" cy="142.9" r="4.73"/><rect class="cls-12" x="142.74" y="131.44" width="17.89" height="17.89" rx="4.49" transform="translate(-30.04 41.94) rotate(-14.34)"/><rect class="cls-12" x="169.28" y="124.66" width="17.89" height="17.89" rx="4.49" transform="translate(-27.53 48.3) rotate(-14.34)"/><rect class="cls-12" x="195.52" y="117.95" width="17.89" height="17.89" rx="4.49" transform="translate(-25.06 54.59) rotate(-14.34)"/><rect class="cls-12" x="149.06" y="154.89" width="17.89" height="17.89" rx="4.49" transform="translate(-35.65 44.23) rotate(-14.34)"/><rect class="cls-12" x="175.29" y="148.18" width="17.89" height="17.89" rx="4.49" transform="translate(-33.17 50.52) rotate(-14.34)"/><rect class="cls-12" x="201.53" y="141.48" width="17.89" height="17.89" rx="4.49" transform="translate(-30.69 56.81) rotate(-14.34)"/><path class="cls-2" d="M185.06,131.86a7.07,7.07,0,1,1-2-3.41A7.08,7.08,0,0,1,185.06,131.86Z"/><path class="cls-2" d="M217.63,147.82a7.07,7.07,0,1,1-2-3.41A7.08,7.08,0,0,1,217.63,147.82Z"/><path class="cls-13" d="M207.77,151.29l2.47,1,2.87-4.73"/><path class="cls-13" d="M175.9,134.91l2.46,1,2.88-4.72"/><path class="cls-2" d="M137.25,106.05l4.21-1.08c1.17-.3,2.82,2.2,3.68,5.58l3.11,12.18c.87,3.38.62,6.36-.55,6.66l-4.21,1.08c-1.17.3-2.82-2.2-3.69-5.58l-3.11-12.18C135.83,109.33,136.07,106.35,137.25,106.05Z"/><path class="cls-2" d="M193.87,92.3l4.21-1.08c1.17-.3,2.82,2.2,3.69,5.58L204.88,109c.86,3.38.62,6.36-.55,6.66l-4.22,1.08c-1.17.3-2.82-2.2-3.68-5.58L193.32,99C192.45,95.58,192.7,92.6,193.87,92.3Z"/><path class="cls-2" d="M723.72,274.76l47.38,14.4c13.16,4,21.34,15.42,18.27,25.5l-11,36.3C775.27,361,762.12,366,749,362l-47.38-14.4c-13.16-4-21.34-15.42-18.27-25.5l11-36.3C697.42,275.69,710.57,270.76,723.72,274.76Z"/><circle class="cls-5" cx="781.19" cy="343.96" r="4.73"/><rect class="cls-12" x="703.8" y="290.55" width="17.89" height="17.89" rx="4.49" transform="translate(218.89 894.3) rotate(-73.09)"/><rect class="cls-12" x="730" y="298.51" width="17.89" height="17.89" rx="4.49" transform="translate(229.85 925.03) rotate(-73.09)"/><rect class="cls-12" x="755.91" y="306.39" width="17.89" height="17.89" rx="4.49" transform="translate(240.68 955.4) rotate(-73.09)"/><rect class="cls-12" x="697.03" y="313.87" width="17.89" height="17.89" rx="4.49" transform="translate(191.78 904.37) rotate(-73.09)"/><rect class="cls-12" x="722.94" y="321.74" width="17.89" height="17.89" rx="4.49" transform="translate(202.61 934.74) rotate(-73.09)"/><rect class="cls-12" x="748.85" y="329.62" width="17.89" height="17.89" rx="4.49" transform="matrix(0.29, -0.96, 0.96, 0.29, 213.45, 965.12)"/><path class="cls-2" d="M712.23,325a7.09,7.09,0,1,1,0-4A7.09,7.09,0,0,1,712.23,325Z"/><path class="cls-2" d="M771.73,318.11a7.07,7.07,0,1,1,.06-3.95A7.08,7.08,0,0,1,771.73,318.11Z"/><path class="cls-13" d="M761.5,316l1.6,2.13,4.91-2.55"/><path class="cls-13" d="M702.81,322.84,704.4,325l4.91-2.54"/><path class="cls-2" d="M718.21,262.64l4.16,1.27c1.15.35,1.27,3.34.25,6.68l-3.65,12c-1,3.34-2.78,5.76-3.93,5.41l-4.17-1.26c-1.15-.36-1.27-3.35-.25-6.69l3.66-12C715.29,264.71,717.05,262.29,718.21,262.64Z"/><path class="cls-2" d="M773.75,280.26l4.16,1.26c1.16.35,1.27,3.35.25,6.69l-3.65,12c-1,3.34-2.78,5.76-3.93,5.41l-4.16-1.27c-1.16-.35-1.27-3.34-.26-6.68l3.66-12C770.83,282.33,772.59,279.91,773.75,280.26Z"/></g></svg>