<?xml version="1.0" encoding="utf-8"?>
<!-- Generator: Adobe Illustrator 23.0.1, SVG Export Plug-In . SVG Version: 6.00 Build 0)  -->
<svg version="1.1" xmlns="http://www.w3.org/2000/svg" xmlns:xlink="http://www.w3.org/1999/xlink" x="0px" y="0px"
	 viewBox="0 0 900 600" style="enable-background:new 0 0 900 600;" xml:space="preserve">
<style type="text/css">
	.st0{display:none;}
	.st1{display:inline;fill:#A6A6A6;}
	.st2{fill:#FFFFFF;stroke:#E1E4E5;stroke-width:4.518;}
	.st3{fill:#E1E4E5;}
	.st4{fill:none;stroke:#FFFFFF;stroke-width:5;stroke-linecap:round;stroke-linejoin:round;}
	.st5{display:inline;}
	.st6{fill:#FFFFFF;}
	.st7{fill:none;}
	.st8{fill:#1AACAA;}
</style>
<g id="Capa_3_1_" class="st0">
	<rect x="-270.4" y="-169" class="st1" width="1748.3" height="1431"/>
</g>
<g id="Capa_6">
</g>
<g id="Capa_1">
	<g>
		
			<image style="overflow:visible;opacity:0.5;" width="512" height="350" xlink:href="C788A169.png"  transform="matrix(1 0 0 1 209 165)">
		</image>
		<g>
			<g>
				<path class="st2" d="M680.1,497.6H249.9c-12.6,0-22.7-10.2-22.7-22.7V205.3c0-12.6,10.2-22.7,22.7-22.7h430.2
					c12.6,0,22.7,10.2,22.7,22.7v269.5C702.8,487.4,692.6,497.6,680.1,497.6L680.1,497.6z"/>
				<path class="st2" d="M702.7,212.5H227.9v-7c0-12.6,10.1-22.8,22.7-22.8H680c12.5,0,22.7,10.2,22.7,22.8V212.5L702.7,212.5z"/>
				<path class="st3" d="M246.6,204.6c2.8,0,5.1-2.2,5.2-5c0-2.8-2.2-5.1-5-5.2h-0.1c-2.8,0-5.1,2.3-5,5.2
					C241.6,202.4,243.8,204.6,246.6,204.6z M266.9,204.6c2.8,0,5.1-2.2,5.2-5c0-2.8-2.2-5.1-5-5.2H267c-2.8,0-5.1,2.3-5,5.2
					C261.9,202.4,264.2,204.6,266.9,204.6z M287.8,204.6c3.1,0,5.6-2.3,5.6-5.1s-2.5-5.1-5.6-5.1s-5.6,2.3-5.6,5.1
					S284.7,204.6,287.8,204.6z"/>
				<path class="st3" d="M389.8,397.2h233.5c4.5,0,8.2,3.7,8.2,8.2l0,0c0,4.5-3.7,8.2-8.2,8.2H389.8c-4.5,0-8.2-3.7-8.2-8.2l0,0
					C381.6,400.9,385.3,397.2,389.8,397.2z"/>
				<path class="st3" d="M389.8,444.6h233.5c4.5,0,8.2,3.7,8.2,8.2l0,0c0,4.5-3.7,8.2-8.2,8.2H389.8c-4.5,0-8.2-3.7-8.2-8.2l0,0
					C381.6,448.2,385.3,444.6,389.8,444.6z"/>
				<path class="st3" d="M390,349.2h195.4c4.7,0,8.5,3.8,8.5,8.5l0,0c0,4.7-3.8,8.5-8.5,8.5H390c-4.7,0-8.5-3.8-8.5-8.5l0,0
					C381.6,353,385.4,349.2,390,349.2z"/>
				<path class="st3" d="M389.8,299.5h244.9c4.5,0,8.2,3.7,8.2,8.2l0,0c0,4.5-3.7,8.2-8.2,8.2H389.8c-4.5,0-8.2-3.7-8.2-8.2l0,0
					C381.6,303.2,385.3,299.5,389.8,299.5z"/>
				<path class="st4" d="M663.4,304.8l4.5,4.5l9.8-9.8"/>
			</g>
		</g>
	</g>
	<g id="Capa_3">
	</g>
</g>
<g id="Capa_5" class="st0">
	<g class="st5">
		
			<image style="overflow:visible;opacity:0.5;" width="312" height="369" xlink:href="C788A16B.png"  transform="matrix(1 0 0 1 292 304)">
		</image>
		<g>
			<path class="st6" d="M304.5,417.7c0.4-9,0.7-18.3,1.4-27.7c0.8-10.6,2.5-21.1,5.5-31.4c2.9-10.2,7-19.9,13.7-28.2
				c8.2-10.3,18.8-16.1,31.8-17.7c9.9-1.2,19.6-0.1,29.3,2.2c12.7,3,24.6,8.1,36.2,13.9c9.7,4.9,20,6.4,30.7,4.8
				c6.5-1,12.5-3.4,18.3-6.3c12.1-6.1,24.7-10.9,38.1-13.5c6.5-1.3,13.1-1.9,19.7-1.5c16.8,0.9,29.9,8.2,39.2,22.3
				c5.6,8.5,9.1,17.8,11.6,27.6c3,11.8,4.4,23.9,5.1,36c0.8,13.8,0.5,27.6-0.6,41.4c-1,11.8-2.5,23.6-4.4,35.3
				c-2.3,14.1-5.2,28-8.6,41.9c-4.7,18.8-10.2,37.4-16.9,55.7c-4.9,13.3-10.3,26.4-16.7,39.1c-4.9,9.6-10.3,19-17.2,27.4
				c-3.1,3.7-6.3,7.2-10.5,9.8c-1,0.6-2.2,1.1-3.3,1.6c-2.5,0.9-4.8,0.4-6.7-1.5c-2.8-2.7-4.4-6.2-5.9-9.7
				c-2.8-6.9-4.7-14.1-6.1-21.5c-1.5-7.8-2.9-15.7-4.2-23.6c-1.7-10.4-3.2-20.9-4.9-31.3c-1.8-10.7-3.8-21.3-7.2-31.7
				c-2.1-6.5-4.7-12.9-9-18.3c-3.7-4.7-8.2-8-14.1-9c-7.9-1.3-14.4,1.4-19.7,7.1c-4.2,4.5-6.8,9.9-9,15.6
				c-3.6,9.6-5.9,19.5-7.6,29.5c-1.8,10.5-3.4,21.1-5.1,31.6c-1.8,10.9-3.7,21.9-5.8,32.8c-1.2,6.4-3,12.6-5.4,18.7
				c-1.3,3.1-2.7,6.1-4.9,8.7c-2.8,3.4-5.5,3.9-9.5,1.9c-4.5-2.3-7.9-5.8-11.1-9.6c-6.6-7.8-11.8-16.5-16.5-25.5
				c-7.5-14.3-13.7-29.2-19.1-44.4c-6.1-17-11.5-34.3-15.7-51.9c-2.7-11.4-5.2-22.9-7.5-34.3c-2.5-12.7-4.3-25.5-5.5-38.4
				C305.6,436.3,305.1,427.2,304.5,417.7z"/>
		</g>
	</g>
</g>
<g id="Capa_2">
	<g id="Capa_4">
		<g>
			<path class="st7" d="M-17.2,184.6h900v600h-900V184.6z"/>
			<path class="st8" d="M490.3,546.6h-332L58.4,298.2h331.5L490.3,546.6z"/>
			<path class="st8" d="M154.4,536.9h438.4v9.7H158.3L154.4,536.9L154.4,536.9z"/>
			<path class="st6" d="M239.5,458.8c-4.3-15,4.3-27.1,19.1-27.1s30.3,12.1,34.5,27.1c4.3,15-4.3,27.1-19.1,27.1
				S243.7,473.8,239.5,458.8L239.5,458.8z"/>
			<circle class="st3" cx="103.3" cy="271.1" r="5.5"/>
			<path class="st3" d="M733.4,568.3l43.5-43.5c1.6-1.6,4.2-1.6,5.7,0l0,0c1.6,1.6,1.6,4.2,0,5.7L739.1,574c-1.6,1.6-4.2,1.6-5.7,0
				l0,0C731.8,572.5,731.8,569.8,733.4,568.3z"/>
			<path class="st3" d="M758.2,565.8l12.6-12.6c1.6-1.6,4.2-1.6,5.7,0l0,0c1.6,1.6,1.6,4.2,0,5.7l-12.6,12.6c-1.6,1.6-4.2,1.6-5.7,0
				l0,0C756.6,570,756.6,567.4,758.2,565.8z"/>
			<path class="st3" d="M75.9,245.5l36.7-36.7c1.3-1.3,3.5-1.3,4.8,0l0,0c1.3,1.3,1.3,3.5,0,4.8l-36.6,36.7c-1.3,1.3-3.5,1.3-4.8,0
				l0,0C74.6,249,74.6,246.8,75.9,245.5z"/>
			<path class="st3" d="M130.4,234.6L141,224c1.3-1.3,3.5-1.3,4.8,0l0,0c1.3,1.3,1.3,3.5,0,4.8l-10.6,10.6c-1.3,1.3-3.5,1.3-4.8,0
				l0,0C129.1,238.1,129.1,236,130.4,234.6z"/>
			<path class="st3" d="M715.7,387.8l32.5-32.5c1.2-1.2,3.1-1.2,4.3,0l0,0c1.2,1.2,1.2,3.1,0,4.3L720,392.1c-1.2,1.2-3.1,1.2-4.3,0
				l0,0C714.5,390.9,714.5,389,715.7,387.8z"/>
			<path class="st3" d="M735.7,388l9.4-9.4c1.2-1.2,3.1-1.2,4.3,0l0,0c1.2,1.2,1.2,3.1,0,4.3l-9.4,9.4c-1.2,1.2-3.1,1.2-4.3,0l0,0
				C734.5,391.1,734.5,389.1,735.7,388z"/>
			<path class="st3" d="M68,561.1l36.7-36.7c1.3-1.3,3.5-1.3,4.8,0l0,0c1.3,1.3,1.3,3.5,0,4.8l-36.7,36.7c-1.3,1.3-3.5,1.3-4.8,0
				l0,0C66.7,564.6,66.7,562.4,68,561.1z"/>
			<path class="st3" d="M90.5,556.3l10.6-10.6c1.3-1.3,3.5-1.3,4.8,0l0,0c1.3,1.3,1.3,3.5,0,4.8l-10.6,10.6c-1.3,1.3-3.5,1.3-4.8,0
				l0,0C89.2,559.8,89.2,557.6,90.5,556.3z"/>
			<g>
				
					<image style="overflow:visible;opacity:0.42;" width="164" height="125" xlink:href="C788A16E.png"  transform="matrix(1 0 0 1 719 359)">
				</image>
				<g>
					<path class="st3" d="M755.1,421.2v22.7l-20.5,24.4h86c26,0,47.1-21.1,47.1-47.1s-21.1-47.1-47.1-47.1h-18.4
						C776.2,374.1,755.1,395.2,755.1,421.2L755.1,421.2z"/>
				</g>
			</g>
			<path class="st6" d="M791.4,421.1c0,4.6-3.7,8.4-8.4,8.4c-4.6,0-8.4-3.7-8.4-8.4c0-4.6,3.7-8.4,8.4-8.4
				C787.6,412.8,791.4,416.5,791.4,421.1z M819.8,421.1c0,4.6-3.7,8.4-8.4,8.4c-4.6,0-8.4-3.7-8.4-8.4c0-4.6,3.8-8.4,8.4-8.4
				S819.8,416.5,819.8,421.1z M848.2,421.1c0,4.6-3.7,8.4-8.4,8.4c-4.6,0-8.4-3.7-8.4-8.4c0-4.6,3.7-8.4,8.4-8.4
				C844.5,412.8,848.2,416.5,848.2,421.1z"/>
		</g>
	</g>
</g>
</svg>
